<svg width="21" height="20" viewBox="0 0 21 20" fill="none" xmlns="http://www.w3.org/2000/svg">
<g id="vuesax/outline/arrow-right">
<g id="arrow-right">
<path id="Vector" d="M12.525 15.6833C12.3667 15.6833 12.2083 15.625 12.0833 15.5C11.8417 15.2583 11.8417 14.8583 12.0833 14.6167L16.7 10L12.0833 5.38333C11.8417 5.14167 11.8417 4.74167 12.0833 4.5C12.325 4.25833 12.725 4.25833 12.9667 4.5L18.025 9.55833C18.2667 9.8 18.2667 10.2 18.025 10.4417L12.9667 15.5C12.8417 15.625 12.6833 15.6833 12.525 15.6833Z" fill="white"/>
<path id="Vector_2" d="M17.4417 10.625H3.41666C3.07499 10.625 2.79166 10.3417 2.79166 10C2.79166 9.65833 3.07499 9.375 3.41666 9.375H17.4417C17.7833 9.375 18.0667 9.65833 18.0667 10C18.0667 10.3417 17.7833 10.625 17.4417 10.625Z" fill="white"/>
</g>
</g>
</svg>
