<svg width="18" height="18" viewBox="0 0 18 18" fill="none" xmlns="http://www.w3.org/2000/svg">
<path d="M9 12.2474C7.2075 12.2474 5.7525 10.7924 5.7525 8.99994C5.7525 7.20744 7.2075 5.75244 9 5.75244C10.7925 5.75244 12.2475 7.20744 12.2475 8.99994C12.2475 10.7924 10.7925 12.2474 9 12.2474ZM9 6.87744C7.83 6.87744 6.8775 7.82994 6.8775 8.99994C6.8775 10.1699 7.83 11.1224 9 11.1224C10.17 11.1224 11.1225 10.1699 11.1225 8.99994C11.1225 7.82994 10.17 6.87744 9 6.87744Z" fill="#71717A"/>
<path d="M9 15.765C6.18 15.765 3.5175 14.115 1.6875 11.25C0.892498 10.0125 0.892498 7.99498 1.6875 6.74998C3.525 3.88499 6.1875 2.23499 9 2.23499C11.8125 2.23499 14.475 3.88499 16.305 6.74998C17.1 7.98748 17.1 10.005 16.305 11.25C14.475 14.115 11.8125 15.765 9 15.765ZM9 3.35999C6.5775 3.35999 4.26 4.81499 2.64 7.35749C2.0775 8.23499 2.0775 9.76498 2.64 10.6425C4.26 13.185 6.5775 14.64 9 14.64C11.4225 14.64 13.74 13.185 15.36 10.6425C15.9225 9.76498 15.9225 8.23499 15.36 7.35749C13.74 4.81499 11.4225 3.35999 9 3.35999Z" fill="#71717A"/>
</svg>
