<svg width="16" height="16" viewBox="0 0 16 16" fill="none" xmlns="http://www.w3.org/2000/svg">
<g id="vuesax/outline/dollar-circle">
<g id="dollar-circle">
<path id="Vector" d="M8.93333 11.6133H7.26C6.16667 11.6133 5.28 10.6933 5.28 9.56001C5.28 9.28667 5.50667 9.06001 5.78 9.06001C6.05333 9.06001 6.28 9.28667 6.28 9.56001C6.28 10.14 6.72 10.6133 7.26 10.6133H8.93333C9.36667 10.6133 9.72667 10.2267 9.72667 9.76001C9.72667 9.18001 9.52 9.06667 9.18 8.94667L6.49333 8.00001C5.97333 7.82001 5.27333 7.43334 5.27333 6.24001C5.27333 5.21334 6.08 4.38667 7.06667 4.38667H8.74C9.83333 4.38667 10.72 5.30667 10.72 6.44001C10.72 6.71334 10.4933 6.94001 10.22 6.94001C9.94667 6.94001 9.72 6.71334 9.72 6.44001C9.72 5.86001 9.28 5.38667 8.74 5.38667H7.06667C6.63333 5.38667 6.27333 5.77334 6.27333 6.24001C6.27333 6.82001 6.48 6.93334 6.82 7.05334L9.50667 8.00001C10.0267 8.18001 10.7267 8.56667 10.7267 9.76001C10.72 10.78 9.92 11.6133 8.93333 11.6133Z" fill="#FFEB3B"/>
<path id="Vector_2" d="M8 12.5C7.72667 12.5 7.5 12.2733 7.5 12V4C7.5 3.72667 7.72667 3.5 8 3.5C8.27333 3.5 8.5 3.72667 8.5 4V12C8.5 12.2733 8.27333 12.5 8 12.5Z" fill="#FFEB3B"/>
<path id="Vector_3" d="M8 15.1667C4.04667 15.1667 0.833334 11.9533 0.833334 7.99999C0.833334 4.04666 4.04667 0.833328 8 0.833328C11.9533 0.833328 15.1667 4.04666 15.1667 7.99999C15.1667 11.9533 11.9533 15.1667 8 15.1667ZM8 1.83333C4.6 1.83333 1.83333 4.59999 1.83333 7.99999C1.83333 11.4 4.6 14.1667 8 14.1667C11.4 14.1667 14.1667 11.4 14.1667 7.99999C14.1667 4.59999 11.4 1.83333 8 1.83333Z" fill="#FFEB3B"/>
</g>
</g>
</svg>
