<svg width="12" height="12" viewBox="0 0 12 12" fill="none" xmlns="http://www.w3.org/2000/svg">
<path d="M4 2.875C3.795 2.875 3.625 2.705 3.625 2.5V1C3.625 0.795 3.795 0.625 4 0.625C4.205 0.625 4.375 0.795 4.375 1V2.5C4.375 2.705 4.205 2.875 4 2.875Z" fill="#71717A"/>
<path d="M8 2.875C7.795 2.875 7.625 2.705 7.625 2.5V1C7.625 0.795 7.795 0.625 8 0.625C8.205 0.625 8.375 0.795 8.375 1V2.5C8.375 2.705 8.205 2.875 8 2.875Z" fill="#71717A"/>
<path d="M4.25 7.25C4.185 7.25 4.12 7.23501 4.06 7.21001C3.995 7.18501 3.945 7.15 3.895 7.105C3.805 7.01 3.75 6.885 3.75 6.75C3.75 6.685 3.765 6.62 3.79 6.56C3.815 6.5 3.85 6.44501 3.895 6.39501C3.945 6.35001 3.995 6.315 4.06 6.29C4.24 6.215 4.465 6.25501 4.605 6.39501C4.695 6.49001 4.75 6.62 4.75 6.75C4.75 6.78 4.745 6.81501 4.74 6.85001C4.735 6.88001 4.725 6.91001 4.71 6.94001C4.7 6.97001 4.685 7 4.665 7.03C4.65 7.055 4.625 7.08 4.605 7.105C4.51 7.195 4.38 7.25 4.25 7.25Z" fill="#71717A"/>
<path d="M6 7.25C5.935 7.25 5.87 7.235 5.81 7.21C5.745 7.185 5.695 7.14999 5.645 7.10499C5.555 7.00999 5.5 6.885 5.5 6.75C5.5 6.685 5.515 6.62 5.54 6.56C5.565 6.5 5.6 6.445 5.645 6.395C5.695 6.35 5.745 6.31499 5.81 6.28999C5.99 6.20999 6.215 6.255 6.355 6.395C6.445 6.49 6.5 6.62 6.5 6.75C6.5 6.78 6.495 6.815 6.49 6.85C6.485 6.88 6.475 6.91 6.46 6.94C6.45 6.97 6.435 7 6.415 7.03C6.4 7.055 6.375 7.07999 6.355 7.10499C6.26 7.19499 6.13 7.25 6 7.25Z" fill="#71717A"/>
<path d="M7.75 7.25C7.685 7.25 7.62 7.235 7.56 7.21C7.495 7.185 7.445 7.14999 7.395 7.10499C7.375 7.07999 7.355 7.055 7.335 7.03C7.315 7 7.3 6.97 7.29 6.94C7.275 6.91 7.265 6.88 7.26 6.85C7.255 6.815 7.25 6.78 7.25 6.75C7.25 6.62 7.305 6.49 7.395 6.395C7.445 6.35 7.495 6.31499 7.56 6.28999C7.745 6.20999 7.965 6.255 8.105 6.395C8.195 6.49 8.25 6.62 8.25 6.75C8.25 6.78 8.245 6.815 8.24 6.85C8.235 6.88 8.225 6.91 8.21 6.94C8.2 6.97 8.185 7 8.165 7.03C8.15 7.055 8.125 7.07999 8.105 7.10499C8.01 7.19499 7.88 7.25 7.75 7.25Z" fill="#71717A"/>
<path d="M4.25 9C4.185 9 4.12 8.98501 4.06 8.96001C4 8.93501 3.945 8.9 3.895 8.855C3.805 8.76 3.75 8.63 3.75 8.5C3.75 8.435 3.765 8.37 3.79 8.31C3.815 8.245 3.85 8.19001 3.895 8.14501C4.08 7.96001 4.42 7.96001 4.605 8.14501C4.695 8.24001 4.75 8.37 4.75 8.5C4.75 8.63 4.695 8.76 4.605 8.855C4.51 8.945 4.38 9 4.25 9Z" fill="#71717A"/>
<path d="M6 9C5.87 9 5.74 8.945 5.645 8.855C5.555 8.76 5.5 8.63 5.5 8.5C5.5 8.435 5.515 8.37 5.54 8.31C5.565 8.245 5.6 8.19001 5.645 8.14501C5.83 7.96001 6.17 7.96001 6.355 8.14501C6.4 8.19001 6.435 8.245 6.46 8.31C6.485 8.37 6.5 8.435 6.5 8.5C6.5 8.63 6.445 8.76 6.355 8.855C6.26 8.945 6.13 9 6 9Z" fill="#71717A"/>
<path d="M7.75 9.00002C7.62 9.00002 7.49 8.94501 7.395 8.85501C7.35 8.81001 7.315 8.75502 7.29 8.69002C7.265 8.63002 7.25 8.56502 7.25 8.50002C7.25 8.43502 7.265 8.37002 7.29 8.31002C7.315 8.24502 7.35 8.19002 7.395 8.14502C7.51 8.03002 7.685 7.97501 7.845 8.01001C7.88 8.01501 7.91 8.02501 7.94 8.04001C7.97 8.05001 8 8.06502 8.03 8.08502C8.055 8.10002 8.08 8.12502 8.105 8.14502C8.195 8.24002 8.25 8.37002 8.25 8.50002C8.25 8.63002 8.195 8.76001 8.105 8.85501C8.01 8.94501 7.88 9.00002 7.75 9.00002Z" fill="#71717A"/>
<path d="M10.25 4.91998H1.75C1.545 4.91998 1.375 4.74998 1.375 4.54498C1.375 4.33998 1.545 4.16998 1.75 4.16998H10.25C10.455 4.16998 10.625 4.33998 10.625 4.54498C10.625 4.74998 10.455 4.91998 10.25 4.91998Z" fill="#71717A"/>
<path d="M8 11.375H4C2.175 11.375 1.125 10.325 1.125 8.5V4.25C1.125 2.425 2.175 1.375 4 1.375H8C9.825 1.375 10.875 2.425 10.875 4.25V8.5C10.875 10.325 9.825 11.375 8 11.375ZM4 2.125C2.57 2.125 1.875 2.82 1.875 4.25V8.5C1.875 9.93 2.57 10.625 4 10.625H8C9.43 10.625 10.125 9.93 10.125 8.5V4.25C10.125 2.82 9.43 2.125 8 2.125H4Z" fill="#71717A"/>
</svg>
