<svg width="20" height="20" viewBox="0 0 20 20" fill="none" xmlns="http://www.w3.org/2000/svg">
<path d="M18.1236 6.63696L10.625 10.3863V18.2534C11.2233 18.1043 11.904 17.7471 12.9814 17.1817L14.6481 16.3071C16.4411 15.3661 17.3377 14.8956 17.8355 14.0502C18.3333 13.2048 18.3333 12.1528 18.3333 10.0488V9.95127C18.3333 8.37405 18.3333 7.38799 18.1236 6.63696Z" fill="#0179F2"/>
<path d="M9.37502 18.2534V10.3863L1.87639 6.63696C1.66669 7.38799 1.66669 8.37405 1.66669 9.95127V10.0488C1.66669 12.1528 1.66669 13.2048 2.16452 14.0502C2.66235 14.8956 3.55888 15.3661 5.35193 16.3071L7.0186 17.1817C8.09605 17.7471 8.77675 18.1043 9.37502 18.2534Z" fill="#3F3F46"/>
<path d="M14.6481 3.69292L12.9814 2.8183C11.5184 2.05054 10.7869 1.66666 10 1.66666C9.21313 1.66666 8.48162 2.05054 7.0186 2.81829L5.35193 3.69292C3.87381 4.46861 3.00494 4.92457 2.46643 5.53442L10 9.30122L17.5336 5.53442C16.9951 4.92457 16.1262 4.46861 14.6481 3.69292Z" fill="#0179F2"/>
</svg>
