<svg width="16" height="16" viewBox="0 0 16 16" fill="none" xmlns="http://www.w3.org/2000/svg">
<path d="M14 13.5H7.33334C7.06001 13.5 6.83334 13.2733 6.83334 13C6.83334 12.7267 7.06001 12.5 7.33334 12.5H14C14.2733 12.5 14.5 12.7267 14.5 13C14.5 13.2733 14.2733 13.5 14 13.5Z" fill="#F44336"/>
<path d="M14 8.83334H7.33334C7.06001 8.83334 6.83334 8.60668 6.83334 8.33334C6.83334 8.06001 7.06001 7.83334 7.33334 7.83334H14C14.2733 7.83334 14.5 8.06001 14.5 8.33334C14.5 8.60668 14.2733 8.83334 14 8.83334Z" fill="#F44336"/>
<path d="M14 4.16666H7.33334C7.06001 4.16666 6.83334 3.93999 6.83334 3.66666C6.83334 3.39332 7.06001 3.16666 7.33334 3.16666H14C14.2733 3.16666 14.5 3.39332 14.5 3.66666C14.5 3.93999 14.2733 4.16666 14 4.16666Z" fill="#F44336"/>
<path d="M2.66668 4.83332C2.54001 4.83332 2.41335 4.78666 2.31335 4.68666L1.64668 4.01999C1.45335 3.82666 1.45335 3.50666 1.64668 3.31332C1.84001 3.11999 2.16001 3.11999 2.35335 3.31332L2.66668 3.62666L4.31335 1.97999C4.50668 1.78666 4.82668 1.78666 5.02001 1.97999C5.21335 2.17332 5.21335 2.49332 5.02001 2.68666L3.02001 4.68666C2.92001 4.78666 2.79335 4.83332 2.66668 4.83332Z" fill="#F44336"/>
<path d="M2.66668 9.50001C2.54001 9.50001 2.41335 9.45335 2.31335 9.35334L1.64668 8.68668C1.45335 8.49334 1.45335 8.17335 1.64668 7.98001C1.84001 7.78668 2.16001 7.78668 2.35335 7.98001L2.66668 8.29334L4.31335 6.64668C4.50668 6.45335 4.82668 6.45335 5.02001 6.64668C5.21335 6.84001 5.21335 7.16001 5.02001 7.35334L3.02001 9.35334C2.92001 9.45335 2.79335 9.50001 2.66668 9.50001Z" fill="#F44336"/>
<path d="M2.66668 14.1667C2.54001 14.1667 2.41335 14.12 2.31335 14.02L1.64668 13.3533C1.45335 13.16 1.45335 12.84 1.64668 12.6467C1.84001 12.4533 2.16001 12.4533 2.35335 12.6467L2.66668 12.96L4.31335 11.3133C4.50668 11.12 4.82668 11.12 5.02001 11.3133C5.21335 11.5067 5.21335 11.8267 5.02001 12.02L3.02001 14.02C2.92001 14.12 2.79335 14.1667 2.66668 14.1667Z" fill="#F44336"/>
</svg>
