<svg width="65" height="64" viewBox="0 0 65 64" fill="none" xmlns="http://www.w3.org/2000/svg">
<g id="b-premium-4">
<path id="vector" d="M58.329 21.2383L34.3334 33.2361V58.4107C36.2478 57.9339 38.4261 56.7908 41.8739 54.9815L47.2073 52.1826C52.945 49.1716 55.8139 47.6661 57.407 44.9607C59 42.2554 59 38.8889 59 32.156V31.8441C59 26.797 59 23.6416 58.329 21.2383Z" fill="#7C4DFF"/>
<path id="vector_2" d="M30.3334 58.4107V33.2361L6.33779 21.2383C5.66675 23.6416 5.66675 26.797 5.66675 31.8441V32.156C5.66675 38.8889 5.66675 42.2554 7.25981 44.9607C8.85286 47.6661 11.7218 49.1716 17.4595 52.1827L22.7929 54.9815C26.2407 56.7908 28.419 57.9339 30.3334 58.4107Z" fill="#7C4DFF"/>
<path id="vector_3" d="M47.2072 11.8174L41.8739 9.01862C37.1922 6.56179 34.8514 5.33337 32.3333 5.33337C29.8153 5.33337 27.4744 6.56179 22.7928 9.01862L17.4594 11.8174C12.7294 14.2996 9.94905 15.7587 8.22583 17.7102L32.3333 29.764L56.4408 17.7102C54.7176 15.7587 51.9372 14.2996 47.2072 11.8174Z" fill="#7C4DFF"/>
</g>
</svg>
