<svg width="64" height="64" viewBox="0 0 64 64" fill="none" xmlns="http://www.w3.org/2000/svg">
<g id="b-premium-1">
<path id="vector" d="M57.9956 21.2383L34 33.2361V58.4107C35.9145 57.9339 38.0927 56.7908 41.5406 54.9815L46.8739 52.1826C52.6117 49.1716 55.4806 47.6661 57.0736 44.9607C58.6667 42.2554 58.6667 38.8889 58.6667 32.156V31.8441C58.6667 26.797 58.6667 23.6416 57.9956 21.2383Z" fill="#3F3F46"/>
<path id="vector_2" d="M29.9999 58.4107V33.2361L6.00429 21.2383C5.33325 23.6416 5.33325 26.797 5.33325 31.8441V32.156C5.33325 38.8889 5.33325 42.2554 6.92631 44.9607C8.51937 47.6661 11.3883 49.1716 17.126 52.1827L22.4594 54.9815C25.9072 56.7908 28.0855 57.9339 29.9999 58.4107Z" fill="#F29201"/>
<path id="vector_3" d="M46.8738 11.8174L41.5405 9.01862C36.8588 6.56179 34.518 5.33337 31.9999 5.33337C29.4819 5.33337 27.1411 6.56179 22.4594 9.01862L17.1261 11.8174C12.3961 14.2996 9.61568 15.7587 7.89246 17.7102L31.9999 29.764L56.1074 17.7102C54.3842 15.7587 51.6038 14.2996 46.8738 11.8174Z" fill="#F29201"/>
</g>
</svg>
