<svg width="65" height="64" viewBox="0 0 65 64" fill="none" xmlns="http://www.w3.org/2000/svg">
<g id="b-premium-2">
<path id="vector" d="M58.6623 21.2383L34.6666 33.2361V58.4107C36.5811 57.9339 38.7593 56.7908 42.2072 54.9815L47.5405 52.1826C53.2783 49.1716 56.1472 47.6661 57.7402 44.9607C59.3333 42.2554 59.3333 38.8889 59.3333 32.156V31.8441C59.3333 26.797 59.3333 23.6416 58.6623 21.2383Z" fill="#F44336"/>
<path id="vector_2" d="M30.6667 58.4107V33.2361L6.67104 21.2383C6 23.6416 6 26.797 6 31.8441V32.156C6 38.8889 6 42.2554 7.59306 44.9607C9.18612 47.6661 12.055 49.1716 17.7928 52.1827L23.1261 54.9815C26.574 56.7908 28.7522 57.9339 30.6667 58.4107Z" fill="#F44336"/>
<path id="vector_3" d="M47.5405 11.8174L42.2071 9.01862C37.5255 6.56179 35.1846 5.33337 32.6666 5.33337C30.1485 5.33337 27.8077 6.56179 23.126 9.01862L17.7927 11.8174C13.0627 14.2996 10.2823 15.7587 8.55908 17.7102L32.6666 29.764L56.7741 17.7102C55.0508 15.7587 52.2704 14.2996 47.5405 11.8174Z" fill="#F44336"/>
</g>
</svg>
