<svg width="65" height="64" viewBox="0 0 65 64" fill="none" xmlns="http://www.w3.org/2000/svg">
<g id="b-premium-2">
<path id="vector" d="M58.4956 21.2383L34.5 33.2361V58.4107C36.4145 57.9339 38.5927 56.7908 42.0406 54.9815L47.3739 52.1826C53.1117 49.1716 55.9806 47.6661 57.5736 44.9607C59.1667 42.2554 59.1667 38.8889 59.1667 32.156V31.8441C59.1667 26.797 59.1667 23.6416 58.4956 21.2383Z" fill="#2EE48D"/>
<path id="vector_2" d="M30.4999 58.4107V33.2361L6.50429 21.2383C5.83325 23.6416 5.83325 26.797 5.83325 31.8441V32.156C5.83325 38.8889 5.83325 42.2554 7.42631 44.9607C9.01937 47.6661 11.8883 49.1716 17.626 52.1827L22.9594 54.9815C26.4072 56.7908 28.5855 57.9339 30.4999 58.4107Z" fill="#3F3F46"/>
<path id="vector_3" d="M47.3738 11.8174L42.0405 9.01862C37.3588 6.56179 35.018 5.33337 32.4999 5.33337C29.9819 5.33337 27.6411 6.56179 22.9594 9.01862L17.6261 11.8174C12.8961 14.2996 10.1157 15.7587 8.39246 17.7102L32.4999 29.764L56.6074 17.7102C54.8842 15.7587 52.1038 14.2996 47.3738 11.8174Z" fill="#2EE48D"/>
</g>
</svg>
