<svg width="17" height="16" viewBox="0 0 17 16" fill="none" xmlns="http://www.w3.org/2000/svg">
<path d="M9.87004 12.5467C9.74337 12.5467 9.6167 12.5 9.5167 12.4C9.32337 12.2067 9.32337 11.8867 9.5167 11.6933L13.21 7.99999L9.5167 4.30665C9.32337 4.11332 9.32337 3.79332 9.5167 3.59999C9.71004 3.40665 10.03 3.40665 10.2234 3.59999L14.27 7.64665C14.4634 7.83999 14.4634 8.15999 14.27 8.35332L10.2234 12.4C10.1234 12.5 9.9967 12.5467 9.87004 12.5467Z" fill="white"/>
<path d="M13.8034 8.5H2.58337C2.31004 8.5 2.08337 8.27333 2.08337 8C2.08337 7.72667 2.31004 7.5 2.58337 7.5H13.8034C14.0767 7.5 14.3034 7.72667 14.3034 8C14.3034 8.27333 14.0767 8.5 13.8034 8.5Z" fill="white"/>
</svg>
