<svg width="18" height="18" viewBox="0 0 18 18" fill="none" xmlns="http://www.w3.org/2000/svg">
<path d="M9.01499 15.3975C7.26749 15.3975 5.51999 15.12 3.86249 14.565C3.23249 14.3475 2.75249 13.905 2.54249 13.3275C2.32499 12.75 2.39999 12.1125 2.74499 11.5425L3.60749 10.11C3.78749 9.81 3.95249 9.21 3.95249 8.8575V6.69C3.95249 3.9 6.22499 1.6275 9.01499 1.6275C11.805 1.6275 14.0775 3.9 14.0775 6.69V8.8575C14.0775 9.2025 14.2425 9.81 14.4225 10.1175L15.2775 11.5425C15.6 12.0825 15.66 12.735 15.4425 13.3275C15.225 13.92 14.7525 14.37 14.16 14.565C12.51 15.12 10.7625 15.3975 9.01499 15.3975ZM9.01499 2.7525C6.84749 2.7525 5.07749 4.515 5.07749 6.69V8.8575C5.07749 9.405 4.85249 10.215 4.57499 10.6875L3.71249 12.12C3.54749 12.3975 3.50249 12.69 3.59999 12.9375C3.68999 13.1925 3.91499 13.3875 4.22249 13.4925C7.35749 14.5425 10.68 14.5425 13.815 13.4925C14.085 13.4025 14.295 13.2 14.3925 12.93C14.49 12.66 14.4675 12.3675 14.3175 12.12L13.455 10.6875C13.17 10.2 12.9525 9.3975 12.9525 8.85V6.69C12.9525 4.515 11.19 2.7525 9.01499 2.7525Z" fill="white"/>
<path d="M10.41 2.95501C10.3575 2.95501 10.305 2.94751 10.2525 2.93251C10.035 2.87251 9.82499 2.82751 9.62249 2.79751C8.98499 2.71501 8.36999 2.76001 7.79249 2.93251C7.58249 3.00001 7.35749 2.93251 7.21499 2.77501C7.07249 2.61751 7.02749 2.39251 7.10999 2.19001C7.41749 1.40251 8.16749 0.88501 9.02249 0.88501C9.87749 0.88501 10.6275 1.39501 10.935 2.19001C11.01 2.39251 10.9725 2.61751 10.83 2.77501C10.7175 2.89501 10.56 2.95501 10.41 2.95501Z" fill="white"/>
<path d="M9.015 17.1075C8.2725 17.1075 7.5525 16.8075 7.0275 16.2825C6.5025 15.7575 6.2025 15.0375 6.2025 14.295H7.3275C7.3275 14.7375 7.5075 15.1725 7.8225 15.4875C8.1375 15.8025 8.5725 15.9825 9.015 15.9825C9.945 15.9825 10.7025 15.225 10.7025 14.295H11.8275C11.8275 15.8475 10.5675 17.1075 9.015 17.1075Z" fill="white"/>
</svg>
