<svg width="16" height="16" viewBox="0 0 16 16" fill="none" xmlns="http://www.w3.org/2000/svg">
<path d="M8.00104 15.1666C4.04771 15.1666 0.834373 11.9533 0.834373 7.99998C0.834373 4.04665 4.04771 0.833313 8.00104 0.833313C11.9544 0.833313 15.1677 4.04665 15.1677 7.99998C15.1677 11.9533 11.9544 15.1666 8.00104 15.1666ZM8.00104 1.83331C4.60104 1.83331 1.83437 4.59998 1.83437 7.99998C1.83437 11.4 4.60104 14.1666 8.00104 14.1666C11.401 14.1666 14.1677 11.4 14.1677 7.99998C14.1677 4.59998 11.401 1.83331 8.00104 1.83331Z" fill="white"/>
<path d="M6.11396 10.3867C5.98729 10.3867 5.86062 10.34 5.76062 10.24C5.56729 10.0467 5.56729 9.72669 5.76062 9.53335L9.53396 5.76002C9.72729 5.56669 10.0473 5.56669 10.2406 5.76002C10.434 5.95335 10.434 6.27335 10.2406 6.46669L6.46729 10.24C6.37396 10.34 6.24062 10.3867 6.11396 10.3867Z" fill="white"/>
<path d="M9.88729 10.3867C9.76062 10.3867 9.63396 10.34 9.53396 10.24L5.76062 6.46669C5.56729 6.27335 5.56729 5.95335 5.76062 5.76002C5.95396 5.56669 6.27396 5.56669 6.46729 5.76002L10.2406 9.53335C10.434 9.72669 10.434 10.0467 10.2406 10.24C10.1406 10.34 10.014 10.3867 9.88729 10.3867Z" fill="white"/>
</svg>
