<svg width="18" height="18" viewBox="0 0 18 18" fill="none" xmlns="http://www.w3.org/2000/svg">
<path d="M16.3113 5.97327L9.5625 9.34765V16.428C10.1009 16.2939 10.7136 15.9724 11.6833 15.4635L13.1833 14.6764C14.797 13.8295 15.6039 13.4061 16.052 12.6452C16.5 11.8843 16.5 10.9375 16.5 9.04388V8.95614C16.5 7.53665 16.5 6.64919 16.3113 5.97327Z" fill="#2EE48D"/>
<path d="M8.4375 16.428V9.34765L1.68873 5.97327C1.5 6.64919 1.5 7.53665 1.5 8.95614V9.04388C1.5 10.9375 1.5 11.8843 1.94805 12.6452C2.3961 13.4061 3.20297 13.8295 4.81672 14.6764L6.31672 15.4635C7.28643 15.9724 7.89906 16.2939 8.4375 16.428Z" fill="#3F3F46"/>
<path d="M13.1833 3.32364L11.6833 2.53648C10.3666 1.84549 9.70819 1.5 8.99999 1.5C8.29178 1.5 7.63342 1.84549 6.31671 2.53647L4.81671 3.32364C3.4864 4.02175 2.70441 4.43212 2.21976 4.98099L8.99999 8.37111L15.7802 4.98099C15.2956 4.43212 14.5136 4.02175 13.1833 3.32364Z" fill="#2EE48D"/>
</svg>
