<svg width="22" height="22" viewBox="0 0 22 22" fill="none" xmlns="http://www.w3.org/2000/svg">
<path d="M17.4991 11.5409C17.3525 11.5409 17.2058 11.495 17.0775 11.3942C13.3833 8.54335 8.60746 8.54335 4.91329 11.3942C4.61079 11.6234 4.17996 11.5683 3.95079 11.275C3.72162 10.9725 3.77663 10.5417 4.06996 10.3125C8.27746 7.05836 13.7133 7.05836 17.9116 10.3125C18.2141 10.5417 18.2691 10.9725 18.0308 11.275C17.9116 11.4492 17.71 11.5409 17.4991 11.5409Z" fill="#A1A1AA"/>
<path d="M20.1667 8.35086C20.02 8.35086 19.8734 8.30505 19.745 8.20422C14.4284 4.09755 7.56253 4.09755 2.25503 8.20422C1.95253 8.43338 1.5217 8.37838 1.29253 8.08504C1.06336 7.78254 1.11835 7.35169 1.41169 7.12253C7.23252 2.62169 14.7584 2.62169 20.5884 7.12253C20.8909 7.35169 20.9459 7.78254 20.7075 8.08504C20.5792 8.25921 20.3684 8.35086 20.1667 8.35086Z" fill="#A1A1AA"/>
<path d="M15.7759 14.8867C15.6292 14.8867 15.4826 14.8408 15.3542 14.74C12.7142 12.6958 9.29506 12.6958 6.6459 14.74C6.3434 14.9692 5.91256 14.9142 5.68339 14.6209C5.45423 14.3184 5.50923 13.8875 5.80257 13.6584C8.9559 11.22 13.0351 11.22 16.1884 13.6584C16.4909 13.8875 16.5459 14.3184 16.3076 14.6209C16.1792 14.795 15.9776 14.8867 15.7759 14.8867Z" fill="#A1A1AA"/>
<path d="M13.3835 18.2417C13.2368 18.2417 13.0902 18.1959 12.9618 18.095C11.7702 17.1692 10.221 17.1692 9.02933 18.095C8.72683 18.3242 8.29599 18.2692 8.06682 17.9759C7.83766 17.6734 7.89265 17.2425 8.18598 17.0134C9.89098 15.6934 12.091 15.6934 13.796 17.0134C14.0985 17.2425 14.1535 17.6734 13.9151 17.9759C13.796 18.1409 13.5943 18.2417 13.3835 18.2417Z" fill="#A1A1AA"/>
</svg>
