<svg width="22" height="22" viewBox="0 0 22 22" fill="none" xmlns="http://www.w3.org/2000/svg">
<path d="M11 20.8542C5.56415 20.8542 1.14581 16.4358 1.14581 11C1.14581 5.56416 5.56415 1.14583 11 1.14583C16.4358 1.14583 20.8541 5.56416 20.8541 11C20.8541 16.4358 16.4358 20.8542 11 20.8542ZM11 2.52083C6.32498 2.52083 2.52081 6.325 2.52081 11C2.52081 15.675 6.32498 19.4792 11 19.4792C15.675 19.4792 19.4791 15.675 19.4791 11C19.4791 6.325 15.675 2.52083 11 2.52083Z" fill="#A1A1AA"/>
<path d="M8.24997 19.9375H7.3333C6.95747 19.9375 6.6458 19.6258 6.6458 19.25C6.6458 18.8742 6.93914 18.5717 7.31497 18.5625C5.8758 13.6492 5.8758 8.35083 7.31497 3.4375C6.93914 3.42833 6.6458 3.12583 6.6458 2.75C6.6458 2.37417 6.95747 2.0625 7.3333 2.0625H8.24997C8.46997 2.0625 8.6808 2.1725 8.80914 2.34667C8.93747 2.53 8.97414 2.75917 8.9008 2.97C7.17747 8.14917 7.17747 13.8508 8.9008 19.0392C8.97414 19.25 8.93747 19.4792 8.80914 19.6625C8.6808 19.8275 8.46997 19.9375 8.24997 19.9375Z" fill="#A1A1AA"/>
<path d="M13.75 19.9375C13.6767 19.9375 13.6034 19.9283 13.53 19.9008C13.1725 19.7817 12.9709 19.3875 13.0992 19.03C14.8225 13.8508 14.8225 8.14917 13.0992 2.96084C12.98 2.60334 13.1725 2.20917 13.53 2.09001C13.8967 1.97084 14.2817 2.16334 14.4009 2.52084C16.225 7.98417 16.225 13.9975 14.4009 19.4517C14.3092 19.7542 14.0342 19.9375 13.75 19.9375Z" fill="#A1A1AA"/>
<path d="M11 15.7667C8.4425 15.7667 5.89417 15.4092 3.4375 14.685C3.42833 15.0517 3.12583 15.3542 2.75 15.3542C2.37417 15.3542 2.0625 15.0425 2.0625 14.6667V13.75C2.0625 13.53 2.1725 13.3192 2.34667 13.1908C2.53 13.0625 2.75917 13.0258 2.97 13.0992C8.14917 14.8225 13.86 14.8225 19.0392 13.0992C19.25 13.0258 19.4792 13.0625 19.6625 13.1908C19.8458 13.3192 19.9467 13.53 19.9467 13.75V14.6667C19.9467 15.0425 19.635 15.3542 19.2592 15.3542C18.8833 15.3542 18.5808 15.0608 18.5717 14.685C16.1058 15.4092 13.5575 15.7667 11 15.7667Z" fill="#A1A1AA"/>
<path d="M19.25 8.93751C19.1767 8.93751 19.1034 8.92834 19.03 8.90084C13.8509 7.17751 8.14003 7.17751 2.96086 8.90084C2.59419 9.02001 2.20919 8.82751 2.09003 8.47001C1.98003 8.10334 2.17253 7.71834 2.53003 7.59917C7.99336 5.77501 14.0067 5.77501 19.4609 7.59917C19.8184 7.71834 20.02 8.11251 19.8917 8.47001C19.8092 8.75417 19.5342 8.93751 19.25 8.93751Z" fill="#A1A1AA"/>
</svg>
