<svg width="22" height="22" viewBox="0 0 22 22" fill="none" xmlns="http://www.w3.org/2000/svg">
<path d="M4.76671 9.58834C4.59255 9.58834 4.40921 9.515 4.28088 9.38667C4.08838 9.185 4.02421 8.89167 4.13421 8.635L5.83921 4.565C5.87588 4.4825 5.89421 4.4275 5.92171 4.38167C7.27838 1.25584 9.01088 0.495004 12.0725 1.66834C12.2467 1.7325 12.3842 1.87 12.4575 2.04417C12.5309 2.21834 12.5309 2.41084 12.4575 2.585L9.77171 8.81834C9.66171 9.075 9.41421 9.23084 9.13921 9.23084H6.52671C6.00421 9.23084 5.50921 9.33167 5.03255 9.53334C4.95005 9.57 4.85838 9.58834 4.76671 9.58834ZM9.72588 2.52084C8.58921 2.52084 7.89255 3.26334 7.16838 4.95C7.15921 4.9775 7.14088 5.005 7.13171 5.0325L5.93088 7.88334C6.13255 7.865 6.32505 7.85584 6.52671 7.85584H8.68088L10.89 2.7225C10.4592 2.585 10.0742 2.52084 9.72588 2.52084Z" fill="white"/>
<path d="M16.7659 9.41417C16.7017 9.41417 16.6284 9.405 16.5642 9.38667C16.2159 9.28584 15.8492 9.23084 15.4642 9.23084H9.13921C8.91005 9.23084 8.69005 9.11167 8.56171 8.91917C8.44255 8.72667 8.41505 8.47917 8.50671 8.26834L11.165 2.09917C11.3025 1.76917 11.7059 1.54 12.045 1.65917C12.155 1.69584 12.2559 1.74167 12.3659 1.7875L14.5292 2.695C15.7942 3.2175 16.6375 3.7675 17.1875 4.4275C17.2975 4.55584 17.3892 4.69334 17.4809 4.84C17.5817 4.99584 17.6734 5.17917 17.7375 5.37167C17.765 5.43584 17.8109 5.555 17.8384 5.68334C18.095 6.55417 17.9667 7.6175 17.4167 8.9925C17.2975 9.24917 17.0409 9.41417 16.7659 9.41417ZM10.1842 7.85584H15.4734C15.7667 7.85584 16.0509 7.88334 16.335 7.92917C16.5917 7.13167 16.6467 6.5175 16.5 6.0225C16.4817 5.94 16.4634 5.90334 16.4542 5.86667C16.3992 5.72 16.3625 5.6375 16.3167 5.56417C16.2525 5.46334 16.2067 5.38084 16.1334 5.29834C15.7392 4.82167 15.0425 4.38167 13.9975 3.95084L12.1917 3.19917L10.1842 7.85584Z" fill="white"/>
<path d="M14.575 20.8542H7.425C7.16833 20.8542 6.93 20.8358 6.69167 20.8083C3.47417 20.5975 1.64083 18.755 1.42083 15.5008C1.39333 15.2992 1.375 15.0517 1.375 14.8042V13.0167C1.375 10.9542 2.60333 9.09334 4.50083 8.26834C5.15167 7.99334 5.83 7.85583 6.53583 7.85583H15.4825C16.005 7.85583 16.5092 7.92917 16.9767 8.07584C19.1308 8.72667 20.6433 10.7617 20.6433 13.0167V14.8042C20.6433 15.0058 20.6342 15.1983 20.625 15.3817C20.4233 18.9658 18.3333 20.8542 14.575 20.8542ZM6.52667 9.23083C6.00417 9.23083 5.50917 9.33167 5.0325 9.53333C3.63917 10.1383 2.74083 11.5042 2.74083 13.0167V14.8042C2.74083 14.9967 2.75917 15.1892 2.7775 15.3725C2.95167 17.985 4.235 19.2683 6.81083 19.4425C7.04 19.47 7.22333 19.4883 7.41583 19.4883H14.5658C17.5908 19.4883 19.0758 18.1592 19.2225 15.3175C19.2317 15.1525 19.2408 14.9875 19.2408 14.8042V13.0167C19.2408 11.3575 18.1317 9.8725 16.555 9.38667C16.2067 9.28584 15.84 9.23083 15.455 9.23083H6.52667Z" fill="white"/>
<path d="M2.05334 13.7042C1.67751 13.7042 1.36584 13.3925 1.36584 13.0167V10.3308C1.36584 7.44333 3.41001 4.95 6.23335 4.4C6.48085 4.35417 6.73751 4.44583 6.90251 4.63833C7.05835 4.83083 7.10418 5.10583 7.00335 5.335L5.39918 9.16667C5.32584 9.33167 5.19751 9.46 5.04168 9.53333C3.64835 10.1383 2.75001 11.5042 2.75001 13.0167C2.74084 13.3925 2.43834 13.7042 2.05334 13.7042ZM5.13334 6.25167C3.96001 6.91167 3.10751 8.06667 2.84168 9.41417C3.24501 9.00167 3.71251 8.65333 4.24418 8.39667L5.13334 6.25167Z" fill="white"/>
<path d="M19.9467 13.7042C19.5708 13.7042 19.2592 13.3925 19.2592 13.0167C19.2592 11.3575 18.15 9.87249 16.5733 9.38666C16.39 9.33166 16.2342 9.20333 16.1517 9.02916C16.0692 8.85499 16.06 8.65333 16.1333 8.47916C16.5642 7.40666 16.6742 6.62749 16.5 6.02249C16.4817 5.93999 16.4633 5.90333 16.4542 5.86666C16.335 5.60083 16.3992 5.28916 16.61 5.08749C16.8208 4.88583 17.1417 4.83999 17.3983 4.97749C19.3967 6.02249 20.6342 8.07583 20.6342 10.3308V13.0167C20.6342 13.3925 20.3225 13.7042 19.9467 13.7042ZM17.6458 8.33249C18.2233 8.59833 18.7367 8.97416 19.1675 9.42333C18.9933 8.52499 18.5625 7.70916 17.93 7.06749C17.8842 7.45249 17.7925 7.87416 17.6458 8.33249Z" fill="white"/>
</svg>
