<svg width="22" height="22" viewBox="0 0 22 22" fill="none" xmlns="http://www.w3.org/2000/svg">
<path d="M11 13.5208C10.6242 13.5208 10.3125 13.2092 10.3125 12.8333V8.25C10.3125 7.87417 10.6242 7.5625 11 7.5625C11.3758 7.5625 11.6875 7.87417 11.6875 8.25V12.8333C11.6875 13.2092 11.3758 13.5208 11 13.5208Z" fill="#A1A1AA"/>
<path d="M11 16.5C10.945 16.5 10.8808 16.4908 10.8167 16.4817C10.7617 16.4725 10.7067 16.4542 10.6517 16.4267C10.5967 16.4083 10.5417 16.3808 10.4867 16.3442C10.4408 16.3075 10.395 16.2708 10.3492 16.2342C10.1842 16.06 10.0833 15.8217 10.0833 15.5833C10.0833 15.345 10.1842 15.1067 10.3492 14.9325C10.395 14.8958 10.4408 14.8592 10.4867 14.8225C10.5417 14.7858 10.5967 14.7583 10.6517 14.74C10.7067 14.7125 10.7617 14.6942 10.8167 14.685C10.9358 14.6575 11.0642 14.6575 11.1742 14.685C11.2383 14.6942 11.2933 14.7125 11.3483 14.74C11.4033 14.7583 11.4583 14.7858 11.5133 14.8225C11.5592 14.8592 11.605 14.8958 11.6508 14.9325C11.8158 15.1067 11.9167 15.345 11.9167 15.5833C11.9167 15.8217 11.8158 16.06 11.6508 16.2342C11.605 16.2708 11.5592 16.3075 11.5133 16.3442C11.4583 16.3808 11.4033 16.4083 11.3483 16.4267C11.2933 16.4542 11.2383 16.4725 11.1742 16.4817C11.1192 16.4908 11.055 16.5 11 16.5Z" fill="#A1A1AA"/>
<path d="M16.555 20.3133H5.44501C3.65751 20.3133 2.29168 19.6625 1.59501 18.4892C0.907508 17.3158 0.999175 15.8033 1.87001 14.2358L7.42501 4.24416C8.34167 2.59416 9.60668 1.68666 11 1.68666C12.3933 1.68666 13.6583 2.59416 14.575 4.24416L20.13 14.245C21.0008 15.8125 21.1017 17.3158 20.405 18.4983C19.7083 19.6625 18.3425 20.3133 16.555 20.3133ZM11 3.06166C10.1383 3.06166 9.29501 3.72166 8.62584 4.91333L3.08001 14.9142C2.45667 16.0325 2.35584 17.0592 2.78667 17.8017C3.21751 18.5442 4.17084 18.9475 5.45417 18.9475H16.5642C17.8475 18.9475 18.7917 18.5442 19.2317 17.8017C19.6717 17.0592 19.5617 16.0417 18.9383 14.9142L13.3742 4.91333C12.705 3.72166 11.8617 3.06166 11 3.06166Z" fill="#A1A1AA"/>
</svg>
