<svg width="18" height="18" viewBox="0 0 18 18" fill="none" xmlns="http://www.w3.org/2000/svg">
<path d="M10.05 13.065H8.1675C6.9375 13.065 5.94 12.03 5.94 10.755C5.94 10.4475 6.195 10.1925 6.5025 10.1925C6.81 10.1925 7.065 10.4475 7.065 10.755C7.065 11.4075 7.56 11.94 8.1675 11.94H10.05C10.5375 11.94 10.9425 11.505 10.9425 10.98C10.9425 10.3275 10.71 10.2 10.3275 10.065L7.305 9C6.72 8.7975 5.9325 8.3625 5.9325 7.02C5.9325 5.865 6.84 4.935 7.95 4.935H9.83249C11.0625 4.935 12.06 5.97 12.06 7.245C12.06 7.5525 11.805 7.8075 11.4975 7.8075C11.19 7.8075 10.935 7.5525 10.935 7.245C10.935 6.5925 10.44 6.06 9.83249 6.06H7.95C7.4625 6.06 7.0575 6.495 7.0575 7.02C7.0575 7.6725 7.28999 7.8 7.67249 7.935L10.695 9C11.28 9.2025 12.0675 9.6375 12.0675 10.98C12.06 12.1275 11.16 13.065 10.05 13.065Z" fill="#FFEB3B"/>
<path d="M9 14.0625C8.6925 14.0625 8.4375 13.8075 8.4375 13.5V4.5C8.4375 4.1925 8.6925 3.9375 9 3.9375C9.3075 3.9375 9.5625 4.1925 9.5625 4.5V13.5C9.5625 13.8075 9.3075 14.0625 9 14.0625Z" fill="#FFEB3B"/>
<path d="M9 17.0625C4.5525 17.0625 0.9375 13.4475 0.9375 9C0.9375 4.5525 4.5525 0.9375 9 0.9375C13.4475 0.9375 17.0625 4.5525 17.0625 9C17.0625 13.4475 13.4475 17.0625 9 17.0625ZM9 2.0625C5.175 2.0625 2.0625 5.175 2.0625 9C2.0625 12.825 5.175 15.9375 9 15.9375C12.825 15.9375 15.9375 12.825 15.9375 9C15.9375 5.175 12.825 2.0625 9 2.0625Z" fill="#FFEB3B"/>
</svg>
