<svg width="24" height="24" viewBox="0 0 24 24" fill="none" xmlns="http://www.w3.org/2000/svg">
<path opacity="0.4" d="M16.19 2H7.82C4.17 2 2 4.17 2 7.81V16.18C2 19.82 4.17 21.99 7.81 21.99H16.18C19.82 21.99 21.99 19.82 21.99 16.18V7.81C22 4.17 19.83 2 16.19 2Z" fill="#3F3F46"/>
<path d="M18 10.71C17.84 10.71 17.68 10.66 17.54 10.55C14.17 7.95 9.82003 7.95 6.46003 10.55C6.13003 10.8 5.66003 10.74 5.41003 10.42C5.16003 10.09 5.22003 9.62 5.54003 9.37C9.46003 6.34 14.53 6.34 18.46 9.37C18.79 9.62 18.85 10.09 18.59 10.42C18.45 10.61 18.22 10.71 18 10.71Z" fill="#3F3F46"/>
<path d="M16.4 13.8C16.24 13.8 16.08 13.75 15.94 13.64C13.54 11.79 10.45 11.79 8.05 13.64C7.72 13.89 7.25 13.83 7 13.51C6.75 13.19 6.80999 12.71 7.12999 12.46C10.08 10.18 13.9 10.18 16.85 12.46C17.18 12.71 17.24 13.18 16.98 13.51C16.85 13.7 16.63 13.8 16.4 13.8Z" fill="#3F3F46"/>
<path d="M14.2001 16.89C14.0401 16.89 13.8801 16.84 13.7401 16.73C12.6801 15.91 11.3101 15.91 10.2501 16.73C9.92007 16.98 9.45007 16.92 9.20007 16.6C8.95007 16.27 9.01007 15.8 9.33007 15.55C10.9201 14.32 13.0601 14.32 14.6501 15.55C14.9801 15.8 15.0401 16.27 14.7801 16.6C14.6501 16.79 14.4301 16.89 14.2001 16.89Z" fill="#3F3F46"/>
</svg>
