<svg width="14" height="14" viewBox="0 0 14 14" fill="none" xmlns="http://www.w3.org/2000/svg">
<path d="M10.6563 8.125H9.25V5.875H10.6563C11.1569 5.875 11.6463 5.72655 12.0625 5.44841C12.4788 5.17027 12.8032 4.77494 12.9948 4.31242C13.1864 3.84989 13.2365 3.34094 13.1389 2.84993C13.0412 2.35891 12.8001 1.90789 12.4461 1.55389C12.0921 1.19989 11.6411 0.958807 11.1501 0.861138C10.6591 0.76347 10.1501 0.813597 9.68758 1.00518C9.22506 1.19677 8.82973 1.5212 8.55159 1.93746C8.27346 2.35373 8.125 2.84312 8.125 3.34375V4.75H5.875V3.34375C5.875 2.84312 5.72655 2.35373 5.44841 1.93746C5.17027 1.5212 4.77494 1.19677 4.31242 1.00518C3.84989 0.813597 3.34094 0.76347 2.84993 0.861138C2.35891 0.958807 1.90789 1.19989 1.55389 1.55389C1.19989 1.90789 0.958807 2.35891 0.861138 2.84993C0.76347 3.34094 0.813597 3.84989 1.00518 4.31242C1.19677 4.77494 1.5212 5.17027 1.93746 5.44841C2.35373 5.72655 2.84312 5.875 3.34375 5.875H4.75V8.125H3.34375C2.84312 8.125 2.35373 8.27346 1.93746 8.55159C1.5212 8.82973 1.19677 9.22506 1.00518 9.68758C0.813597 10.1501 0.76347 10.6591 0.861138 11.1501C0.958807 11.6411 1.19989 12.0921 1.55389 12.4461C1.90789 12.8001 2.35891 13.0412 2.84993 13.1389C3.34094 13.2365 3.84989 13.1864 4.31242 12.9948C4.77494 12.8032 5.17027 12.4788 5.44841 12.0625C5.72655 11.6463 5.875 11.1569 5.875 10.6563V9.25H8.125V10.6563C8.125 11.1569 8.27346 11.6463 8.55159 12.0625C8.82973 12.4788 9.22506 12.8032 9.68758 12.9948C10.1501 13.1864 10.6591 13.2365 11.1501 13.1389C11.6411 13.0412 12.0921 12.8001 12.4461 12.4461C12.8001 12.0921 13.0412 11.6411 13.1389 11.1501C13.2365 10.6591 13.1864 10.1501 12.9948 9.68758C12.8032 9.22506 12.4788 8.82973 12.0625 8.55159C11.6463 8.27346 11.1569 8.125 10.6563 8.125ZM9.25 3.34375C9.25 3.06562 9.33248 2.79374 9.487 2.56248C9.64152 2.33122 9.86115 2.15098 10.1181 2.04455C10.3751 1.93811 10.6578 1.91026 10.9306 1.96452C11.2034 2.01878 11.454 2.15271 11.6506 2.34938C11.8473 2.54605 11.9812 2.79662 12.0355 3.06941C12.0897 3.34219 12.0619 3.62494 11.9555 3.8819C11.849 4.13886 11.6688 4.35848 11.4375 4.51301C11.2063 4.66753 10.9344 4.75 10.6563 4.75H9.25V3.34375ZM1.9375 3.34375C1.9375 2.97079 2.08566 2.61311 2.34938 2.34938C2.61311 2.08566 2.97079 1.9375 3.34375 1.9375C3.71671 1.9375 4.0744 2.08566 4.33812 2.34938C4.60184 2.61311 4.75 2.97079 4.75 3.34375V4.75H3.34375C2.97079 4.75 2.61311 4.60184 2.34938 4.33812C2.08566 4.0744 1.9375 3.71671 1.9375 3.34375ZM4.75 10.6563C4.75 10.9344 4.66753 11.2063 4.51301 11.4375C4.35848 11.6688 4.13886 11.849 3.8819 11.9555C3.62494 12.0619 3.34219 12.0897 3.06941 12.0355C2.79662 11.9812 2.54605 11.8473 2.34938 11.6506C2.15271 11.454 2.01878 11.2034 1.96452 10.9306C1.91026 10.6578 1.93811 10.3751 2.04455 10.1181C2.15098 9.86115 2.33122 9.64152 2.56248 9.487C2.79374 9.33248 3.06562 9.25 3.34375 9.25H4.75V10.6563ZM5.875 5.875H8.125V8.125H5.875V5.875ZM10.6563 12.0625C10.2833 12.0625 9.92561 11.9143 9.66188 11.6506C9.39816 11.3869 9.25 11.0292 9.25 10.6563V9.25H10.6563C11.0292 9.25 11.3869 9.39816 11.6506 9.66188C11.9143 9.92561 12.0625 10.2833 12.0625 10.6563C12.0625 11.0292 11.9143 11.3869 11.6506 11.6506C11.3869 11.9143 11.0292 12.0625 10.6563 12.0625Z" fill="#52525B"/>
</svg>
