<svg width="17" height="16" viewBox="0 0 17 16" fill="none" xmlns="http://www.w3.org/2000/svg">
<path d="M10.12 12.5467C9.99334 12.5467 9.86667 12.5 9.76667 12.4C9.57334 12.2067 9.57334 11.8867 9.76667 11.6933L13.46 8L9.76667 4.30667C9.57334 4.11333 9.57334 3.79333 9.76667 3.6C9.96001 3.40667 10.28 3.40667 10.4733 3.6L14.52 7.64667C14.7133 7.84 14.7133 8.16 14.52 8.35333L10.4733 12.4C10.3733 12.5 10.2467 12.5467 10.12 12.5467Z" fill="#F44336"/>
<path d="M14.0533 8.5H2.83334C2.56001 8.5 2.33334 8.27333 2.33334 8C2.33334 7.72667 2.56001 7.5 2.83334 7.5H14.0533C14.3267 7.5 14.5533 7.72667 14.5533 8C14.5533 8.27333 14.3267 8.5 14.0533 8.5Z" fill="#F44336"/>
</svg>
